<?xml version="1.0" encoding="UTF-8" standalone="no"?>
<!-- Created with Inkscape (http://www.inkscape.org/) -->

<svg
   width="245.15834mm"
   height="101.29824mm"
   viewBox="0 0 245.15834 101.29824"
   version="1.1"
   id="svg99913"
   inkscape:version="1.1 (c4e8f9ed74, 2021-05-24)"
   sodipodi:docname="object_reassigned.svg"
   xmlns:inkscape="http://www.inkscape.org/namespaces/inkscape"
   xmlns:sodipodi="http://sodipodi.sourceforge.net/DTD/sodipodi-0.dtd"
   xmlns="http://www.w3.org/2000/svg"
   xmlns:svg="http://www.w3.org/2000/svg">
  <sodipodi:namedview
     id="namedview99915"
     pagecolor="#ffffff"
     bordercolor="#666666"
     borderopacity="1.0"
     inkscape:pageshadow="2"
     inkscape:pageopacity="0.0"
     inkscape:pagecheckerboard="0"
     inkscape:document-units="mm"
     showgrid="false"
     inkscape:zoom="0.69130191"
     inkscape:cx="139.59169"
     inkscape:cy="240.84991"
     inkscape:window-width="1920"
     inkscape:window-height="964"
     inkscape:window-x="0"
     inkscape:window-y="0"
     inkscape:window-maximized="1"
     inkscape:current-layer="layer1" />
  <defs
     id="defs99910">
    <marker
       style="overflow:visible"
       id="Arrow1Lstart"
       refX="0"
       refY="0"
       orient="auto"
       inkscape:stockid="Arrow1Lstart"
       inkscape:isstock="true">
      <path
         transform="matrix(0.8,0,0,0.8,10,0)"
         style="fill:context-stroke;fill-rule:evenodd;stroke:context-stroke;stroke-width:1pt"
         d="M 0,0 5,-5 -12.5,0 5,5 Z"
         id="path11975" />
    </marker>
    <rect
       x="136.83421"
       y="290.47321"
       width="59.246227"
       height="52.222569"
       id="rect3136" />
    <rect
       x="302.7067"
       y="434.76617"
       width="186.79655"
       height="65.281036"
       id="rect74448" />
  </defs>
  <g
     inkscape:label="レイヤー 1"
     inkscape:groupmode="layer"
     id="layer1"
     transform="translate(-3.3368012,-108.45136)">
    <text
       xml:space="preserve"
       transform="matrix(0.60995336,0,0,0.60995336,-81.590865,-50.0028)"
       id="text3134"
       style="font-style:normal;font-weight:normal;font-size:40px;line-height:1.25;font-family:sans-serif;white-space:pre;shape-inside:url(#rect3136);fill:#000000;fill-opacity:1;stroke:none"><tspan
         x="136.83398"
         y="329.87266"
         id="tspan115407">a</tspan></text>
    <rect
       style="fill:none;stroke:#114d82;stroke-width:0.708;stroke-miterlimit:4;stroke-dasharray:none"
       id="rect69616"
       width="60.80027"
       height="45.11573"
       x="64.484146"
       y="123.98654"
       rx="0.18687899"
       ry="0.32494882" />
    <text
       xml:space="preserve"
       transform="matrix(0.26458333,0,0,0.26458333,-8.9130863,13.108499)"
       id="text74446"
       style="font-style:normal;font-weight:normal;font-size:40px;line-height:1.25;font-family:sans-serif;white-space:pre;shape-inside:url(#rect74448);fill:#000000;fill-opacity:1;stroke:none"><tspan
         x="302.70703"
         y="474.16562"
         id="tspan115409">id:</tspan></text>
    <text
       xml:space="preserve"
       style="font-style:normal;font-weight:normal;font-size:10.5833px;line-height:1.25;font-family:sans-serif;fill:#000000;fill-opacity:1;stroke:none;stroke-width:0.264583"
       x="70.637238"
       y="158.20877"
       id="text83348"><tspan
         sodipodi:role="line"
         id="tspan83346"
         style="stroke-width:0.264583"
         x="70.637238"
         y="158.20877">name:</tspan></text>
    <path
       style="fill:none;stroke:#000000;stroke-width:0.264583px;stroke-linecap:butt;stroke-linejoin:miter;stroke-opacity:1"
       d="m 71.29394,144.96969 h 47.18068"
       id="path88887" />
    <rect
       style="fill:none;stroke:#114d82;stroke-width:0.7;stroke-miterlimit:4;stroke-dasharray:none"
       id="rect89128"
       width="30.306547"
       height="20.733765"
       x="184.35432"
       y="108.80136"
       rx="0.065776736"
       ry="0.17266199" />
    <rect
       style="fill:none;stroke:#114d82;stroke-width:0.7;stroke-miterlimit:4;stroke-dasharray:none"
       id="rect89130"
       width="71.696304"
       height="20.554646"
       x="168.86566"
       y="157.45975"
       rx="0.1234649"
       ry="0.2146827" />
    <text
       xml:space="preserve"
       style="font-style:normal;font-weight:normal;font-size:10.5833px;line-height:1.25;font-family:sans-serif;fill:#000000;fill-opacity:1;stroke:none;stroke-width:0.264583"
       x="191.49077"
       y="122.4279"
       id="text91730"><tspan
         sodipodi:role="line"
         id="tspan91728"
         style="stroke-width:0.264583"
         x="191.49077"
         y="122.4279">123</tspan></text>
    <text
       xml:space="preserve"
       style="font-style:normal;font-weight:normal;font-size:6.99205px;line-height:1.25;font-family:sans-serif;fill:#000000;fill-opacity:1;stroke:none;stroke-width:0.174801"
       x="176.33423"
       y="169.66603"
       id="text95100"><tspan
         sodipodi:role="line"
         id="tspan95098"
         style="stroke-width:0.174801"
         x="176.33423"
         y="169.66603">Miles Thompson</tspan></text>
    <rect
       style="fill:none;stroke:#114d82;stroke-width:0.7;stroke-miterlimit:4;stroke-dasharray:none"
       id="rect89130-9"
       width="71.696304"
       height="20.554646"
       x="169.2588"
       y="188.84496"
       rx="0.1234649"
       ry="0.2146827" />
    <text
       xml:space="preserve"
       style="font-style:normal;font-weight:normal;font-size:6.99205px;line-height:1.25;font-family:sans-serif;fill:#000000;fill-opacity:1;stroke:none;stroke-width:0.174801"
       x="176.72737"
       y="201.05124"
       id="text95100-1"><tspan
         sodipodi:role="line"
         id="tspan95098-2"
         style="stroke-width:0.174801"
         x="176.72737"
         y="201.05124">Michael Pettiford</tspan></text>
    <g
       id="path99457"
       transform="translate(-6.2672533,13.108499)">
      <path
         style="color:#000000;fill:#000000;-inkscape-stroke:none"
         d="m 27.890625,131.76758 v 0.46484 h 35.841797 v -0.46484 z"
         id="path99858" />
      <g
         id="g99846">
        <g
           id="path99848">
          <path
             style="color:#000000;fill:#000000;fill-rule:evenodd;stroke-width:0.372pt;-inkscape-stroke:none"
             d="m 59.082346,132.00066 -1.86,1.86 6.51,-1.86 -6.51,-1.86 z"
             id="path99852" />
          <path
             style="color:#000000;fill:#000000;fill-rule:evenodd;-inkscape-stroke:none"
             d="M 56.371094,129.63867 58.732422,132 56.371094,134.36133 64.634766,132 Z m 1.703125,1.00391 L 62.830078,132 58.074219,133.35937 59.433594,132 59.257812,131.82617 Z"
             id="path99854" />
        </g>
      </g>
    </g>
    <g
       id="path99527"
       transform="translate(-6.2672533,13.108499)">
      <path
         style="color:#000000;fill:#000000;-inkscape-stroke:none"
         d="m 184.52344,105.61133 c -0.30826,0.0909 -1.67848,0.41431 -3.78321,0.89258 -2.10472,0.47826 -4.96351,1.11816 -8.31836,1.86328 -6.70969,1.49023 -15.40199,3.40197 -24.00976,5.28906 -17.21554,3.77418 -34.0918,7.44727 -34.0918,7.44727 l 0.0918,0.42382 c 0,0 16.87586,-3.67494 34.0918,-7.44921 8.60797,-1.88714 17.30128,-3.79867 24.01171,-5.28907 3.35522,-0.74519 6.21431,-1.38472 8.32032,-1.86328 2.106,-0.47855 3.43908,-0.78943 3.80859,-0.89844 z"
         id="path99643" />
      <g
         id="g99631">
        <g
           id="path99633">
          <path
             style="color:#000000;fill:#000000;fill-rule:evenodd;stroke-width:0.346309pt;-inkscape-stroke:none"
             d="m 180.43206,107.04359 -1.17087,2.15071 5.32284,-3.37551 -6.30268,0.0539 z"
             id="path99637" />
          <path
             style="color:#000000;fill:#000000;fill-rule:evenodd;-inkscape-stroke:none"
             d="m 185.39062,105.58008 -8.00195,0.0703 2.73047,1.48438 -1.48633,2.73242 z m -1.61132,0.47656 -3.88868,2.46484 0.85547,-1.57031 -0.20312,-0.11133 -1.36719,-0.74414 z"
             id="path99639" />
        </g>
      </g>
    </g>
    <g
       id="path113586">
      <path
         style="color:#000000;fill:#000000;-inkscape-stroke:none"
         d="m 107.24219,164.06055 -0.31641,0.46875 53.93359,36.3164 0.31446,-0.46875 z"
         id="path115299" />
      <g
         id="g115287">
        <g
           id="path115289">
          <path
             style="color:#000000;fill:#000000;fill-rule:evenodd;stroke-width:0.452pt;-inkscape-stroke:none"
             d="m 156.32985,197.45626 -3.13692,0.61232 7.82346,2.54344 -5.29886,-6.29268 z"
             id="path115293" />
          <path
             style="color:#000000;fill:#000000;fill-rule:evenodd;-inkscape-stroke:none"
             d="m 155.19922,193.23633 0.77539,3.98242 -3.98047,0.77734 9.93164,3.22852 z m 1.03711,2.16797 3.86914,4.5957 -5.71289,-1.85938 2.29101,-0.44726 -0.0586,-0.29492 z"
             id="path115295" />
        </g>
      </g>
    </g>
    <g
       id="path113953">
      <path
         style="color:#000000;fill:#000000;stroke-dasharray:0.565, 2.26;-inkscape-stroke:none"
         d="m 112.27539,154.57031 -0.12109,0.55274 0.39453,0.0859 0.12109,-0.55078 z m 2.60156,0.57422 -0.12109,0.55078 0.55273,0.1211 0.1211,-0.55079 z m 2.75977,0.60547 -0.12109,0.55273 0.55078,0.1211 0.12304,-0.55274 z m 2.75976,0.60742 -0.12304,0.55274 0.55273,0.12109 0.1211,-0.55273 z m 2.75782,0.60742 -0.1211,0.55078 0.55274,0.12305 0.12109,-0.55273 z m 2.75976,0.60743 -0.12109,0.55078 0.55078,0.12109 0.12109,-0.55078 z m 2.75977,0.60546 -0.12305,0.55274 0.55274,0.12109 0.12109,-0.55078 z m 2.75781,0.60743 -0.12109,0.55273 0.55078,0.12109 0.12304,-0.55273 z m 2.75977,0.60742 -0.1211,0.55273 0.55078,0.1211 0.1211,-0.55274 z m 2.75781,0.60742 -0.1211,0.55078 0.55274,0.12109 0.12109,-0.55078 z m 2.75976,0.60742 -0.12109,0.55078 0.55078,0.1211 0.12305,-0.55078 z m 2.75977,0.60547 -0.12305,0.55273 0.55274,0.1211 0.12109,-0.55274 z m 2.75781,0.60742 -0.12109,0.55274 0.55273,0.12109 0.1211,-0.55273 z m 2.75977,0.60742 -0.1211,0.55079 0.55079,0.12304 0.12109,-0.55273 z m 2.75781,0.60743 -0.12109,0.55078 0.55273,0.12109 0.12109,-0.55078 z m 2.75977,0.60546 -0.1211,0.55274 0.55078,0.12109 0.12305,-0.55078 z m 2.75976,0.60743 -0.12109,0.55273 0.55078,0.12109 0.12109,-0.55273 z m 2.75781,0.60742 -0.12109,0.55078 0.55273,0.12305 0.1211,-0.55274 z m 2.75977,0.60742 -0.12109,0.55078 0.55078,0.1211 0.12109,-0.55079 z"
         id="path115317" />
      <g
         id="g115305">
        <g
           id="path115307">
          <path
             style="color:#000000;fill:#000000;fill-rule:evenodd;stroke-width:0.452pt;-inkscape-stroke:none"
             d="m 156.75418,164.6457 -2.6928,1.72163 8.21084,-0.50767 -7.23967,-3.90677 z"
             id="path115311" />
          <path
             style="color:#000000;fill:#000000;fill-rule:evenodd;-inkscape-stroke:none"
             d="m 154.15234,161.13477 2.18555,3.41992 -3.41797,2.18554 10.42383,-0.64453 z m 1.76172,1.63671 5.28516,2.85157 -5.9961,0.37109 1.9668,-1.25781 -0.16211,-0.25391 z"
             id="path115313" />
        </g>
      </g>
    </g>
    <g
       id="g114154"
       transform="matrix(1.2432676,0,0,1.2432676,129.72486,-70.463559)"
       style="stroke:#f81d10;stroke-width:0.678052;stroke-miterlimit:4;stroke-dasharray:none;stroke-opacity:1">
      <path
         style="fill:none;stroke:#f81d10;stroke-width:0.678052;stroke-linecap:butt;stroke-linejoin:miter;stroke-miterlimit:4;stroke-dasharray:none;stroke-opacity:1"
         d="M 25.207839,179.96991 95.424204,203.2149"
         id="path113988" />
      <path
         style="fill:none;stroke:#f81d10;stroke-width:0.678052;stroke-linecap:butt;stroke-linejoin:miter;stroke-miterlimit:4;stroke-dasharray:none;stroke-opacity:1"
         d="M 95.424204,179.96991 25.207839,203.2149"
         id="path114070" />
    </g>
  </g>
</svg>
